<?xml version="1.0" standalone="no"?>
<!DOCTYPE svg PUBLIC "-//W3C//DTD SVG 20010904//EN"
 "http://www.w3.org/TR/2001/REC-SVG-20010904/DTD/svg10.dtd">
<svg version="1.0" xmlns="http://www.w3.org/2000/svg"
 width="1000.000000pt" height="1000.000000pt" viewBox="0 0 1000.000000 1000.000000"
 preserveAspectRatio="xMidYMid meet">
<metadata>
Created by potrace 1.14, written by Peter Selinger 2001-2017
</metadata>
<g transform="translate(0.000000,1000.000000) scale(0.100000,-0.100000)"
fill="#000000" stroke="none">
<path d="M4420 9339 c-1371 -82 -2430 -421 -3180 -1017 -126 -101 -388 -363
-480 -482 -267 -345 -438 -698 -575 -1184 -229 -815 -231 -1714 -5 -2537 319
-1165 1041 -2138 2053 -2771 165 -103 528 -287 707 -357 391 -155 795 -255
1235 -308 189 -22 811 -25 1000 -5 870 95 1656 377 2365 847 338 224 572 417
886 730 321 320 511 550 739 895 416 628 687 1327 784 2021 131 940 -70 1924
-527 2589 -141 206 -366 447 -562 603 -687 548 -1653 858 -2995 963 -243 19
-1206 28 -1445 13z m1004 -1402 c371 -57 607 -119 866 -229 904 -382 1480
-1140 1594 -2098 64 -538 -8 -1084 -201 -1520 -137 -308 -312 -560 -554 -795
-435 -423 -987 -678 -1682 -777 -149 -21 -179 -22 -1484 -25 l-1333 -4 0 2736
0 2736 1343 -4 c1190 -3 1354 -5 1451 -20z"/>
<path d="M4170 5226 l0 -1426 453 0 c555 0 658 10 884 85 301 100 522 285 660
550 222 428 228 1129 13 1557 -167 331 -449 536 -865 629 -95 21 -127 22 -622
26 l-523 4 0 -1425z"/>
</g>
</svg>
