<svg width="48" height="48" viewBox="0 0 48 48" fill="none" xmlns="http://www.w3.org/2000/svg">
    <g clip-path="url(#clip0_25_137)">
        <path
            d="M24 4C23.564 4 23.136 4.004 22.716 4.01L21.484 4.044L20.886 4.07L19.728 4.138L18.622 4.23C9.052 5.158 5.158 9.052 4.23 18.622L4.138 19.728L4.07 20.886C4.06 21.082 4.05 21.282 4.044 21.484L4.01 22.716L4.002 23.352L4 24C4 24.436 4.004 24.864 4.01 25.284L4.044 26.516L4.07 27.114L4.138 28.272L4.23 29.378C5.158 38.948 9.052 42.842 18.622 43.77L19.728 43.862L20.886 43.93C21.082 43.94 21.282 43.95 21.484 43.956L22.716 43.99L24 44L25.284 43.99L26.516 43.956L27.114 43.93L28.272 43.862L29.378 43.77C38.948 42.842 42.842 38.948 43.77 29.378L43.862 28.272L43.93 27.114C43.94 26.918 43.95 26.718 43.956 26.516L43.99 25.284L44 24L43.99 22.716L43.956 21.484L43.93 20.886L43.862 19.728L43.77 18.622C42.842 9.052 38.948 5.158 29.378 4.23L28.272 4.138L27.114 4.07C26.9147 4.06027 26.7154 4.0516 26.516 4.044L25.284 4.01L24.648 4.002L24 4ZM16.586 16.586C16.9304 16.2416 17.3886 16.0348 17.8746 16.0042C18.3607 15.9737 18.8412 16.1215 19.226 16.42L19.414 16.586L24 21.17L28.586 16.586C28.9304 16.2416 29.3886 16.0348 29.8746 16.0042C30.3607 15.9737 30.8412 16.1215 31.226 16.42L31.414 16.586C31.7584 16.9304 31.9652 17.3886 31.9958 17.8746C32.0263 18.3607 31.8785 18.8412 31.58 19.226L31.414 19.414L25.414 25.414C25.0696 25.7584 24.6114 25.9652 24.1254 25.9958C23.6393 26.0263 23.1588 25.8785 22.774 25.58L22.586 25.414L16.586 19.414C16.2111 19.0389 16.0004 18.5303 16.0004 18C16.0004 17.4697 16.2111 16.9611 16.586 16.586ZM16.586 24.586C16.9304 24.2416 17.3886 24.0348 17.8746 24.0042C18.3607 23.9737 18.8412 24.1215 19.226 24.42L19.414 24.586L24 29.17L28.586 24.586C28.9304 24.2416 29.3886 24.0348 29.8746 24.0042C30.3607 23.9737 30.8412 24.1215 31.226 24.42L31.414 24.586C31.7584 24.9304 31.9652 25.3886 31.9958 25.8746C32.0263 26.3607 31.8785 26.8412 31.58 27.226L31.414 27.414L25.414 33.414C25.0696 33.7584 24.6114 33.9652 24.1254 33.9958C23.6393 34.0263 23.1588 33.8785 22.774 33.58L22.586 33.414L16.586 27.414C16.2111 27.0389 16.0004 26.5303 16.0004 26C16.0004 25.4697 16.2111 24.9611 16.586 24.586Z"
            fill="#1E4040" />
    </g>
    <defs>
        <clipPath id="clip0_25_137">
            <rect width="48" height="48" fill="white" />
        </clipPath>
    </defs>
</svg>